<svg width="1000" height="974" viewBox="0 0 906 974" fill="none" preserveAspectRatio="none">
    <path id="zigzag"
        d="M905 23.9997C661.487 57.9021 700.974 154.18 763 209.965C763 209.965 577.5 315 577.5 169.5C577.5 24 337.5 -70.5001 412.5 85.5C487.5 241.5 254 346.035 153 278C52 209.965 153 587 30.5 614C-92 641 265 419 283 485C301 551 538.5 623.5 544.5 533C550.5 442.5 355.5 707.5 355.5 707.5C355.5 707.5 142.5 683.5 94 761.5C45.5 839.5 235 951 235 951C235 951 379.5 843 412.5 862.25C445.5 881.5 469.5 800.5 523.5 862.25C577.5 924 763 969 763 969"
        stroke="#FF0A0A" stroke-width="9" />
</svg>
